<svg xmlns="http://www.w3.org/2000/svg" xmlns:xlink="http://www.w3.org/1999/xlink"><symbol id="logo"><path d="M13.364 0v20.046H10.07V5.822L8.973 7.207 6.825 9.975l-.095.095-.144-.095L4.44 7.207l-1.1-1.432v14.27H0V0h3.34l3.39 4.295L10.07 0h3.294Zm-5.06 10.07-.095-.095.095.095Z" fill="#0AD9C6"/><path d="m8.448 9.975-.096.095h-.047l.143-.095Zm29.762-4.36-9.128 6.701 2.113 2.878 9.127-6.701-2.113-2.878Z" fill="#0AD9C6"/><path d="M26.667 3c-3.864 0-7.043 3.13-7.043 7.043 0 3.864 3.13 7.043 7.043 7.043 3.864 0 7.044-3.13 7.044-7.043C33.71 6.18 30.53 3 26.667 3Zm0 10.271a3.225 3.225 0 0 1-3.228-3.228 3.225 3.225 0 0 1 3.228-3.228c1.761 0 3.228 1.467 3.228 3.228 0 1.76-1.467 3.228-3.228 3.228ZM43.64 3c-3.864 0-7.044 3.13-7.044 7.043 0 3.864 3.13 7.043 7.044 7.043 3.864 0 7.043-3.13 7.043-7.043C50.633 6.18 47.503 3 43.64 3Zm0 10.271a3.225 3.225 0 0 1-3.229-3.228 3.225 3.225 0 0 1 3.229-3.228c1.76 0 3.228 1.467 3.228 3.228 0 1.76-1.468 3.228-3.228 3.228ZM67.598.239v20.045h-3.341V9.88L61.44 7.207l-2.1-2.052v15.13H56V.238h3.341l3.913 3.77 1.003.955V.239h3.34Z" fill="#0AD9C6"/><path fill="#0AD9C6" d="M37 3h6v4h-6z"/></symbol><symbol id="play"><path fill-rule="evenodd" clip-rule="evenodd" d="M32.5 65C50.45 65 65 50.45 65 32.5S50.45 0 32.5 0 0 14.55 0 32.5 14.55 65 32.5 65Z" fill="#0AD9C6"/><path fill-rule="evenodd" clip-rule="evenodd" d="m28.6 23.4 13 9.1-13 9.1V23.4Z" fill="#070707"/></symbol></svg>